<?xml version="1.0" encoding="utf-8"?>
<!-- Generator: Adobe Illustrator 16.0.0, SVG Export Plug-In . SVG Version: 6.00 Build 0)  -->
<!DOCTYPE svg PUBLIC "-//W3C//DTD SVG 1.1//EN" "http://www.w3.org/Graphics/SVG/1.1/DTD/svg11.dtd">
<svg version="1.1" id="Layer_1" xmlns="http://www.w3.org/2000/svg" xmlns:xlink="http://www.w3.org/1999/xlink" x="0px" y="0px"
	 width="70px" height="129px" viewBox="0 0 70 129" enable-background="new 0 0 70 129" xml:space="preserve">
<g id="leaf">
	<path fill="none" stroke="#000000" stroke-miterlimit="10" d="M46.905,1.887C59.86-5.412,97.772,98.774,20.004,104.397
		c-23.932,1.729-27.139-74.726,19.679-89.909C56.354,9.082,47.154,2.435,46.905,1.887z"/>
	<g>
		<path d="M1.004,126.73c0,0,3.016-3.868,7.385-9.82c4.365-5.952,10.075-13.979,15.443-22.233c2.682-4.127,5.279-8.31,7.589-12.304
			c1.161-1.993,2.239-3.945,3.226-5.814c0.992-1.867,1.882-3.657,2.66-5.33s1.448-3.228,1.98-4.628
			c0.285-0.694,0.51-1.358,0.716-1.974c0.211-0.614,0.407-1.177,0.538-1.7c0.145-0.519,0.273-0.983,0.386-1.386
			c0.083-0.41,0.153-0.759,0.21-1.042c0.114-0.567,0.175-0.87,0.175-0.87s-0.045,0.305-0.13,0.877
			c-0.043,0.287-0.097,0.64-0.158,1.056c-0.092,0.41-0.197,0.881-0.315,1.409c-0.105,0.532-0.274,1.106-0.455,1.733
			c-0.175,0.629-0.367,1.309-0.618,2.02c-0.464,1.437-1.059,3.032-1.755,4.754c-0.696,1.721-1.501,3.566-2.402,5.493
			c-0.896,1.93-1.881,3.946-2.945,6.008c-2.117,4.131-4.513,8.465-6.997,12.746c-4.97,8.563-10.293,16.91-14.376,23.112
			c-4.084,6.2-6.937,10.269-6.937,10.269L1.004,126.73z"/>
	</g>
</g>
</svg>
